<svg height="1438" width="720" xmlns="http://www.w3.org/2000/svg">
<rect height="1438" fill="#555" width="720"></rect>
<text fill="#7f7" font-family="Courier New" font-size="12" xml:space="preserve">
<tspan x="10" y="26">26 megabytes installed</tspan>
<tspan x="10" y="42"></tspan>
<tspan x="10" y="58">node_modules</tspan>
<tspan x="10" y="74">└─┬ jsforce@1.7.1 </tspan>
<tspan x="10" y="90">  ├─┬ co-prompt@1.0.0 </tspan>
<tspan x="10" y="106">  │ └── keypress@0.2.1 </tspan>
<tspan x="10" y="122">  ├── coffee-script@1.12.5 </tspan>
<tspan x="10" y="138">  ├─┬ commander@2.9.0 </tspan>
<tspan x="10" y="154">  │ └── graceful-readlink@1.0.1 </tspan>
<tspan x="10" y="170">  ├── csv-parse@1.2.0 </tspan>
<tspan x="10" y="186">  ├─┬ csv-stringify@1.0.4 </tspan>
<tspan x="10" y="202">  │ └── lodash.get@4.4.2 </tspan>
<tspan x="10" y="218">  ├─┬ faye@1.2.4 </tspan>
<tspan x="10" y="234">  │ ├── asap@2.0.5 </tspan>
<tspan x="10" y="250">  │ ├─┬ csprng@0.1.2 </tspan>
<tspan x="10" y="266">  │ │ └── sequin@0.1.1 </tspan>
<tspan x="10" y="282">  │ ├─┬ faye-websocket@0.11.1 </tspan>
<tspan x="10" y="298">  │ │ └─┬ websocket-driver@0.6.5 </tspan>
<tspan x="10" y="314">  │ │   └── websocket-extensions@0.1.1 </tspan>
<tspan x="10" y="330">  │ ├─┬ tough-cookie@2.3.2 </tspan>
<tspan x="10" y="346">  │ │ └── punycode@1.4.1 </tspan>
<tspan x="10" y="362">  │ └── tunnel-agent@0.6.0 </tspan>
<tspan x="10" y="378">  ├── inherits@2.0.3 </tspan>
<tspan x="10" y="394">  ├── lodash@4.17.4 </tspan>
<tspan x="10" y="410">  ├── multistream@2.1.0 </tspan>
<tspan x="10" y="426">  ├── open@0.0.5 </tspan>
<tspan x="10" y="442">  ├── promise@7.1.1 </tspan>
<tspan x="10" y="458">  ├─┬ readable-stream@2.2.9 </tspan>
<tspan x="10" y="474">  │ ├── buffer-shims@1.0.0 </tspan>
<tspan x="10" y="490">  │ ├── core-util-is@1.0.2 </tspan>
<tspan x="10" y="506">  │ ├── isarray@1.0.0 </tspan>
<tspan x="10" y="522">  │ ├── process-nextick-args@1.0.7 </tspan>
<tspan x="10" y="538">  │ ├── string_decoder@1.0.0 </tspan>
<tspan x="10" y="554">  │ └── util-deprecate@1.0.2 </tspan>
<tspan x="10" y="570">  ├─┬ request@2.81.0 </tspan>
<tspan x="10" y="586">  │ ├── aws-sign2@0.6.0 </tspan>
<tspan x="10" y="602">  │ ├── aws4@1.6.0 </tspan>
<tspan x="10" y="618">  │ ├── caseless@0.12.0 </tspan>
<tspan x="10" y="634">  │ ├─┬ combined-stream@1.0.5 </tspan>
<tspan x="10" y="650">  │ │ └── delayed-stream@1.0.0 </tspan>
<tspan x="10" y="666">  │ ├── extend@3.0.0 </tspan>
<tspan x="10" y="682">  │ ├── forever-agent@0.6.1 </tspan>
<tspan x="10" y="698">  │ ├─┬ form-data@2.1.4 </tspan>
<tspan x="10" y="714">  │ │ └── asynckit@0.4.0 </tspan>
<tspan x="10" y="730">  │ ├─┬ har-validator@4.2.1 </tspan>
<tspan x="10" y="746">  │ │ ├─┬ ajv@4.11.7 </tspan>
<tspan x="10" y="762">  │ │ │ ├── co@4.6.0 </tspan>
<tspan x="10" y="778">  │ │ │ └─┬ json-stable-stringify@1.0.1 </tspan>
<tspan x="10" y="794">  │ │ │   └── jsonify@0.0.0 </tspan>
<tspan x="10" y="810">  │ │ └── har-schema@1.0.5 </tspan>
<tspan x="10" y="826">  │ ├─┬ hawk@3.1.3 </tspan>
<tspan x="10" y="842">  │ │ ├── boom@2.10.1 </tspan>
<tspan x="10" y="858">  │ │ ├── cryptiles@2.0.5 </tspan>
<tspan x="10" y="874">  │ │ ├── hoek@2.16.3 </tspan>
<tspan x="10" y="890">  │ │ └── sntp@1.0.9 </tspan>
<tspan x="10" y="906">  │ ├─┬ http-signature@1.1.1 </tspan>
<tspan x="10" y="922">  │ │ ├── assert-plus@0.2.0 </tspan>
<tspan x="10" y="938">  │ │ ├─┬ jsprim@1.4.0 </tspan>
<tspan x="10" y="954">  │ │ │ ├── assert-plus@1.0.0 </tspan>
<tspan x="10" y="970">  │ │ │ ├── extsprintf@1.0.2 </tspan>
<tspan x="10" y="986">  │ │ │ ├── json-schema@0.2.3 </tspan>
<tspan x="10" y="1002">  │ │ │ └── verror@1.3.6 </tspan>
<tspan x="10" y="1018">  │ │ └─┬ sshpk@1.13.0 </tspan>
<tspan x="10" y="1034">  │ │   ├── asn1@0.2.3 </tspan>
<tspan x="10" y="1050">  │ │   ├── assert-plus@1.0.0 </tspan>
<tspan x="10" y="1066">  │ │   ├── bcrypt-pbkdf@1.0.1 </tspan>
<tspan x="10" y="1082">  │ │   ├─┬ dashdash@1.14.1 </tspan>
<tspan x="10" y="1098">  │ │   │ └── assert-plus@1.0.0 </tspan>
<tspan x="10" y="1114">  │ │   ├── ecc-jsbn@0.1.1 </tspan>
<tspan x="10" y="1130">  │ │   ├─┬ getpass@0.1.6 </tspan>
<tspan x="10" y="1146">  │ │   │ └── assert-plus@1.0.0 </tspan>
<tspan x="10" y="1162">  │ │   ├── jodid25519@1.0.2 </tspan>
<tspan x="10" y="1178">  │ │   ├── jsbn@0.1.1 </tspan>
<tspan x="10" y="1194">  │ │   └── tweetnacl@0.14.5 </tspan>
<tspan x="10" y="1210">  │ ├── is-typedarray@1.0.0 </tspan>
<tspan x="10" y="1226">  │ ├── isstream@0.1.2 </tspan>
<tspan x="10" y="1242">  │ ├── json-stringify-safe@5.0.1 </tspan>
<tspan x="10" y="1258">  │ ├─┬ mime-types@2.1.15 </tspan>
<tspan x="10" y="1274">  │ │ └── mime-db@1.27.0 </tspan>
<tspan x="10" y="1290">  │ ├── oauth-sign@0.8.2 </tspan>
<tspan x="10" y="1306">  │ ├── performance-now@0.2.0 </tspan>
<tspan x="10" y="1322">  │ ├── qs@6.4.0 </tspan>
<tspan x="10" y="1338">  │ ├── safe-buffer@5.0.1 </tspan>
<tspan x="10" y="1354">  │ ├── stringstream@0.0.5 </tspan>
<tspan x="10" y="1370">  │ └── uuid@3.0.1 </tspan>
<tspan x="10" y="1386">  └─┬ xml2js@0.4.17 </tspan>
<tspan x="10" y="1402">    ├── sax@1.2.2 </tspan>
<tspan x="10" y="1418">    └── xmlbuilder@4.2.1</tspan>
</text>
</svg>
